<?xml version="1.0" encoding="utf-8"?>
<!-- Generator: Adobe Illustrator 16.0.0, SVG Export Plug-In . SVG Version: 6.00 Build 0)  -->
<!DOCTYPE svg PUBLIC "-//W3C//DTD SVG 1.1//EN" "http://www.w3.org/Graphics/SVG/1.1/DTD/svg11.dtd">
<svg version="1.1" id="Layer_1" xmlns="http://www.w3.org/2000/svg" xmlns:xlink="http://www.w3.org/1999/xlink" x="0px" y="0px"
	 width="396px" height="426px" viewBox="0 0 396 426" enable-background="new 0 0 396 426" xml:space="preserve">
<g>
	<defs>
		<path id="SVGID_1_" d="M40.042,222.123c0,82.803,67.125,149.927,149.928,149.927c82.802,0,149.926-67.124,149.926-149.927
			c0-82.802-67.124-149.927-149.926-149.927C107.167,72.196,40.042,139.321,40.042,222.123"/>
	</defs>
	<clipPath id="SVGID_2_">
		<use xlink:href="#SVGID_1_"  overflow="visible"/>
	</clipPath>
	<path clip-path="url(#SVGID_2_)" fill="#9B8954" d="M233.107,291.137c2.29,3.552,1.864,7.616,2.177,11.542
		c-0.208,1.263-0.657,2.541-0.585,3.788c0.514,8.88,0.116,17.766,0.341,26.645c0.03,1.225-0.977,2.603,0.639,4.272
		c1.42-6.265,2.522-12.095,3.296-17.991c1.632,1.982,2.324,4.882,5.502,5.427c0.751-0.626,0.658-1.572,0.542-2.524
		c1.221-4.478,2.185-8.998,2.305-13.661c1.938,0.379,2.049,2.426,3.198,3.557c2.249,2.213,5.169,2.703,7.715,2.046
		c1.998-0.515,1.108-3.352,1.282-5.201c0.131-1.396-0.123-2.653-0.828-3.973c-1.328-2.481-1.146-4.352,0.095-5.866
		c0.373,4.465,2.337,8.041,5.969,10.688c3.059,1.775,3.059,1.775,4.079-4.587c1.755,0.472,1.334,2.632,2.639,3.341
		c0.646,0.351,1.361,0.992,1.964,0.907c0.768-0.106,0.828-1.104,0.907-1.849c0.103-0.962,0.206-1.925,0.307-2.887
		c0.505-4.833,0.771-5.043,5.469-3.683c-2.076-2.043-1.915-3.99-0.798-5.951c0.479-0.84,0.494-1.813,0.043-2.469
		c-0.759-1.104-0.024-1.983,0.479-2.436c0.46-0.411,0.567,1.262,0.985,1.174c2.788-12.729,2.067-25.646,4.392-38.258
		c0.134-0.729,0.045-1.487,0.603-2.116c3.564-4.021,4.524-8.867,4.304-14.041c-0.045-1.066,1.72-1.471,0.709-3.007
		c-0.649,4.086,1.579,7.791,0.532,11.617c-0.059,0.211,0.233,0.605,0.463,0.796c6.293,5.244,5.087,12.732,5.885,19.617
		c0.769,6.634,0.588,13.379,2.292,19.903c0.251,0.965-0.047,1.87-0.112,2.802c-0.064,0.897-1.546,3.016,1.369,2.658
		c0.596-0.072,0.443,0.856,0.396,1.318c-0.156,1.554,0.071,2.973,1.019,4.267c0.48,0.656,0.53,1.456-0.023,2.096
		c-2.387,2.75-0.426,1.8,1.063,1.269c-0.175,1.318,2.229,0.651,1.672,1.996c-0.404,0.979,0.167,1.579,0.273,2.425
		c2.289-0.624,2.441-3.028,4.028-4.644c0.753,2.359,0.057,4.749,0.89,6.9c0.335,0.864,0.334,2.295,1.116,2.433
		c1.202,0.211,1.959-0.946,2.673-1.959c2.247-3.183,3.385-6.604,2.718-10.518c2.076,2.847,1.702,5.893,0.396,8.808
		c-1.247,2.782-1.441,5.753,0.373,7.857c1.422,1.648,4.235,0.433,6.429,0.352c1.002-0.037,1.676-0.442,2.026-1.632
		c2.056-6.985,2.377-14.283,3.295-21.401c1.131-8.768-0.251,1.55-0.123-7.351c0.008-0.567-0.504-1.568,1.007-1.709
		c0.139,11.291,0.71,3.224,2.146,14.396c0.572,4.456,0.535,8.993,1.777,13.361c0.274,0.964,0.931,2.391,1.669,0.856
		c1.344-2.79,4.104-5.151,3.3-8.768c0.16-0.131,0.316-0.269,0.469-0.411c1.382,1.876,1.138,4.102,0.121,5.715
		c-1.545,2.454-1.087,4.789-0.906,7.334c0.184,2.578,1.317,2.871,3.554,2.529c3.572-0.544,6.324-2.111,7.938-5.711
		c1.312,6.949,2.366,13.473,4.46,19.768c-0.183-6.46,0.573-12.899-0.185-19.316c0.88-6.521,0.002-13.081,0.428-19.604
		c0.192-2.968,1.122-6.017,3.865-7.551c2.945-1.646,3.141-4.167,3.277-6.917c0.436-0.059,0.871-0.118,1.308-0.177
		c0.608,2.89,0.804,5.789,4.158,7.401c2.48,1.192,3.089,4.244,3.277,6.724c0.381,5.012,0.173,10.069,0.208,15.108
		c-0.012,7.956-0.026,15.912-0.031,23.868c-0.001,0.644,0.011,1.293,0.107,1.926c0.089,0.577,0.481,0.969,1.095,0.975
		c0.605,0.005,0.469-0.548,0.629-0.91c1.835-4.157,2.749-8.578,3.064-13.041c0.314-4.459,2.563-8.398,2.908-12.798
		c1.646,0.149,2.242,0.005,2.547-2.228c0.689-5.07,2.338-10.012,3.586-15.009c0.128-0.514,0.181-1.048,0.268-1.573
		c0.426-1.258,0.632-2.54,0.443-3.867c0.035-0.417,0.07-0.836,0.104-1.254c0.779-3.44,2.085-6.782,1.934-10.396
		c1.002-5.945,0.899-11.975,1.397-17.96c0.062-0.734-0.795-1.991,0.624-1.968c1.343,0.02,0.604,1.33,0.635,2.062
		c0.251,5.982-0.113,12.01,1.461,17.882c0.726,7.36,2.033,14.614,3.792,21.8c0.806,3.294,1.525,6.602,2.698,9.788
		c0.326,0.886-1.301,2.752,0.994,2.566c1.481-0.12,3.779-1.166,3.66-2.371c-0.398-4.002,3.933-4.952,4.347-8.268
		c0.993,2.099,2.059,3.795,3.771,5.021c1.554,1.113,2.572,1.036,2.675-1.169c0.13-2.797,3.025-3.859,3.938-6.227
		c0.298-0.776,1.029,0.007,1.342,0.594c1.207,2.271,3.675,3.613,4.059,6.668c0.147,1.184,3.098,1.984,1.045,4.448
		c1.543-1.26,4.413-0.263,4.367-3.017c-0.07-4.22,2.011-7.711,3.42-11.439c0.896,0.34,1.769,0.869,2.691,0.978
		c1.544,0.184,3.652,1.076,4.521-0.37c0.951-1.584,0.616-3.789-0.384-5.55c-0.778-1.369-1.871-2.559-2.637-3.933
		c-1.254-2.249-0.41-3.754,2.261-3.93c0.473-0.029,0.757-0.044,0.871-0.389c0.283-0.847,0.479-2.645,0.603-2.479
		c1.276,1.717,1.39-1.329,2.298-0.469c0.377,0.358,0.673-0.098,0.608-0.311c-1.096-3.656,4.437-4.791,3.207-8.474
		c3.414-4.093,3.28-9.292,4.567-14.084c3.086-11.492,2.938-23.236,3.179-34.943c0.042-2.032-1.521-4.098,0.323-5.917
		c1.685,1.933,0.391,4.057,0.299,6.187c-0.453,10.559,0.656,21.054,1.967,31.493c0.623,4.963,1.687,10.109,3.842,14.546
		c1.136,2.337,1.241,5.438,3.378,7.058c1.434,1.086,1.817,2.041,1.664,3.612c-0.104,1.061,0.457,1.142,1.226,0.585
		c0.506,1.069,2.928,0.757,2.038,2.888c-0.164,0.392,0.097,0.775,0.874,0.89c2.849,0.42,3.555,2.371,1.712,4.802
		c-1.508,1.988-2.685,3.95-2.739,6.594c-0.045,2.143,0.89,2.615,2.688,2.438c0.748-0.074,1.548,0.011,2.239-0.226
		c2.212-0.758,2.671-0.417,3.695,2.157c1.067,2.684,1.619,5.285,2.106,8.016c0.212,1.188,1.122,0.641,1.796,0.671
		c5.643-1.192,0.992-5.186,2.42-8.397c0.794,1.067,1.37,1.936,2.046,2.719c0.438,0.509,1.022,0.846,1.536,0.009
		c1.307-2.132,3.405-3.877,3.064-6.801c-0.11-0.939-0.316-2.164,1.094-2.613c0.335,6.343,3.753,6.933,9.05,6.105
		c2.127-3.259,3.823-6.733,5.332-11.26c0.944,4.329,3.103,7.241,4.409,10.524c0.654,1.643,1.517,1.402,2.67,1.213
		c2.601,0.075,4.874-0.842,7.024-2.76c-0.253,2.739-0.993,5.662,0.809,6.992c2.257,1.67,4.329-1.164,6.511-2.101
		c0.931,1.963-0.865,4.449,0.548,5.577c1.467,1.172,3.869,0.451,5.869,0.304c0.198-0.078,0.397-0.156,0.597-0.233
		c0.168-0.157,0.336-0.315,0.503-0.474l0.136-0.122l0.654-0.479c0.974-0.511,0.95-1.767,1.715-2.57
		c1.563,1.531-0.241,2.573-0.335,3.781c-0.281,3.616,0.232,7.125,1.713,10.319c0.602,1.297-0.911,3.381,1.452,3.917
		c1.491,0.184,2.725-0.214,3.538-1.563c0.312,0.181,0.623,0.362,0.935,0.543c-0.01,1.588-1.374,4.03,0.601,4.514
		c2.482,0.609,5.603,1.145,7.568-1.752c0.255,0.179,0.509,0.356,0.764,0.535c-0.593,2.963-0.094,5.72,0.937,8.245
		c2.219-0.368-1.25-4.489,2.858-3.019c0.875,1.463,2.213,0.811,3.423,0.747c4.148-0.17,8.344,0.948,12.45-0.445
		c0.557-0.19,1.233-0.124,1.303,0.49c0.302,2.693,2.283,1.914,3.871,1.974c1.388-0.114,2.354-0.223,2.741,1.822
		c0.606,3.209,3.273,5.815,3.13,9.351c-1.455,0.485-2.517,1.057-2.347,3.031c0.236,2.758,0.095,5.552,0.035,8.33
		c-0.026,1.252,0.163,2.435,1.242,3.104c1.313,0.814,1.153,1.442,0.586,2.814c-1.74,4.201-0.502,5.832,4.027,5.833
		c1.603,0.001,3.205-0.032,4.808-0.048c1.154,0.114,2.331,0.068,2.215,1.852c-0.22,3.364,0.276,6.751-0.27,10.11
		c-24.205,0.009-48.409,0.027-72.614,0.027c-82.229,0-164.46-0.01-246.689-0.009c-75.77,0-151.541,0.031-227.312,0.004
		c-66.416-0.023-132.831-0.129-199.247-0.164c-23.67-0.012-47.341,0.076-71.012,0.119c-0.575-3.452-0.102-6.93-0.253-10.392
		c-0.048-1.092,0.573-1.482,1.541-1.542c0.419,0.012,0.849,0.09,1.257,0.024c0.893-0.144,2.315,0.628,2.323-1.186
		c0.007-1.5-1.236-1.111-2.08-1.254c-0.928-0.158-1.869-0.235-2.804-0.347c-0.005-0.851-0.009-1.7-0.013-2.551
		c0.245-0.113,0.489-0.229,0.732-0.344c0.21,0.022,0.405-0.021,0.584-0.132c3.207,0.635,4.209-0.563,4.092-3.888
		c-0.268-7.586-0.004-15.191-0.145-22.784c-0.046-2.448,0.821-3.559,3.118-2.892c1.826,0.531,3.218-0.16,4.722-0.809
		c1.657,0.181,3.314,0.362,4.971,0.543c2.75,0.764,5.551-0.297,8.315,0.237c0.545,0.104,1.099-0.179,1.18-0.819
		c0.377-2.97,2.629-1.599,4.016-1.534c1.872,0.089,1.369,1.858,1.383,3.059c0.046,3.894,0.017,7.79,0.017,11.876
		c2.179-0.811,1.864-2.331,1.867-3.67c0.019-6.663,0.019-13.326-0.001-19.989c-0.003-1.439-0.027-3.17,1.478-3.59
		c2.689-0.751,5.653-0.637,8.343-0.724c2.179-0.069,4.765,0.252,7.159,0.491c1.04,0.139,2.079,0.278,3.118,0.415
		c1.229,2.707,0.962,5.708,2.382,8.589c1.34,2.718,2.185,2.462,4.021,1.545c0.875-0.437,1.478-1.568,2.687-0.762
		c0.086,1.607-1.417,1.606-2.289,2.21c-0.886,0.615-1.153,0.954-1.023,2.366c0.266,2.876,2.207,1.365,3.325,1.882
		c0.547,1.211-1.423,1.652-0.875,3.18c0.215,0.601-0.906,2.035,0.656,2.23c1.215,0.152,2.927-0.5,2.884-1.864
		c-0.045-1.459,0.098-3.771-2.616-3.593c-0.289-1.393,1.195-1.459,1.725-2.261c1.354-2.051,0.784-3.561-1.74-4.193
		c1.76-2.146,2.599-4.688,2.301-7.365c-0.308-2.773-0.364-5.491,0.069-8.232c0.196-10.986-0.942-22.038,0.766-32.948h1.057
		c0.163,0.619,0.326,1.236,0.493,1.868c0.215-0.054,0.51-0.053,0.544-0.146c0.326-0.901,0.642-1.796,1.638-2.193
		c0.258,0.69,0.672,1.366,0.745,2.076c0.167,1.636,1.384,1.07,2.196,1.079c4.507,0.053,9.023,0.186,13.52-0.044
		c3.053-0.153,3.793,1.168,3.955,3.931c0.473,8.104,0.209,16.21,0.319,24.554c9.379-5.688,18.638-11.31,27.908-16.914
		c0.725-0.438,1.524-0.755,2.289-1.128c0.152,0.237,0.303,0.475,0.455,0.713c-0.341,0.728-1.014,1.016-1.668,1.41
		c-8.945,5.389-17.797,10.938-26.839,16.158c-2.303,1.328-2.362,2.703-1.868,4.744c1.701-0.254,2.216-2.672,4.205-1.869
		c0.24,2.134-2.173,1.588-2.835,2.808c-1.982,1.398-2.524,3.026-0.804,5.016c0.859,0.94-0.609,1.115-0.575,1.711
		c0.08,1.374-1.558,3.243,1.052,3.943c0.071,0.297,0.141,0.594,0.212,0.892c-2.219,2.112-2.238,4.796-0.045,6.396
		c-1.715,2.453-2.392,4.992-0.644,7.734c0.196,0.193,0.669,0.303,0.382,0.688c-2.211,2.97-0.821,6.278-1.342,10.17
		c2.738-2.586,0.784-5.539,2.196-7.63c1.724,0.237,3.447,0.472,5.171,0.708c2.928,2.67,6.558,2.427,8.645-0.552
		c1.511-2.158,2.325-4.755,4.235-6.657c1.047-0.438,1.482-1.383,1.975-2.307c0.297-0.558,0.736-1.093,1.343-0.232
		c-1.258,2.037-0.984,3.799,0.884,5.342c0.267,0.222,0.289,0.737,0.424,1.117c0.042,0.617-0.295,1.299,0.411,2.023
		c0.074-0.791,0.13-1.4,0.187-2.009c0.098-0.354,0.196-0.708,0.294-1.063c0.367-0.364,0.881-0.662,1.077-1.103
		c2.895-6.504,5.665-13.064,8.666-19.518c0.767-1.647-0.764-1.514-1.137-2.25c-0.444-1.298,3.167-2.438,0.148-3.834
		c-0.748-1.138,0.609-1.362,0.886-2.053c0.307-0.768,0.943-1.714-0.709-1.661c-0.292-0.087-0.585-0.176-0.877-0.264
		c-0.122-1.541,3.84-2.421,0.72-4.447c-0.636-0.972,0.456-1.112,0.776-1.628c0.648-1.048,0.571-1.868-0.774-2.237
		c-0.715-0.507-0.152-0.926,0.179-1.184c2.199-1.721,0.541-2.15-0.863-2.68c0.193-0.362,0.307-0.818,0.597-1.071
		c0.752-0.657,1.738-1.482,1.038-2.371c-0.934-1.189-1.492,0.53-2.298,0.716c-2.044,0.47-3.054,3.33-6.196,2.485
		c2.607-1.667,4.87-3.03,7.034-4.535c1.072-0.745,2.705-1.556,0.878-3.193c-0.22-0.239-0.44-0.478-0.66-0.718
		c1.126-1.382,2.599-2.288,1.217-4.79c-0.6-1.087,0.781-4.043,2.745-5.615c0.469,2.602,3.468,4.458,1.124,7.669
		c-0.934,1.279,2.803,4.919,4.892,4.983c2.464,0.074,4.94,0.246,7.393,0.092c2.231-0.139,3.238,0.517,2.812,2.846
		c-0.545,2.975,0.747,3.971,3.664,3.626c2.012-0.236,4.074-0.09,6.111-0.036c1.09,0.029,1.947-0.054,2.781,1.381
		c0.998,1.719,3.244,0.677,4.977,0.427c1.501,0.041,3.002,0.088,4.504,0.118c1.147,0.021,1.993,0.562,1.848,1.725
		c-0.61,4.876,1.715,9.422,1.403,14.3c-0.301,4.708-0.098,9.451-0.053,14.179c0.032,3.416-1.118,7.061,1.751,9.994
		c0.003,0.003-0.261,0.268-0.4,0.408c0.003,0.807-2.338-1.432-1.25,1.031c0.612,1.387,2.969,2.002,1.903,4.131
		c-0.574-0.301-1.147-0.601-1.758-0.922c-0.44,1.921,2.442,2.267,1.754,4.175c-1.006,1.101-1.352-1.107-2.316-0.456
		c0.446,1.765,1.957,2.758,2.933,4.115c0.732,1.017,1.51,0.637,2.005-0.395c0.747-0.04,1.807,0.491,1.066-1.211
		c-0.57-1.309-2.703-1.993-1.715-3.951c0.788-0.392,0.932,1.02,1.713,0.679c0.301-1.894-2.807-2.423-1.711-4.563
		c1.665,1.116,1.867,0.383,1.859-1.257c-0.058-11.172,0.032-22.345-0.077-33.516c-0.025-2.516,0.745-3.599,3.302-3.331
		c1.168,0.122,2.361,0.011,3.542,0.008c0.83-0.002,1.444-0.222,1.571-1.204c0.364-2.814,2.316-3.353,4.756-3.433
		c2.403-0.081,4.209,0.496,4.685,3.133c0.186,1.027,0.794,1.323,1.747,1.534c3.823,0.847,7.672,1.023,11.48,0.192
		c3.081-0.674,4.925,2.11,7.643,2.597c0.567,0.101,1.938,1.759,3.384,1.568c2.767-0.364,3.574,0.789,3.385,3.422
		c-0.126,1.771-0.844,4.706,0.397,5.179c3.252,1.233,2.323,3.638,2.073,5.515c-0.518,3.881,3.278,6.79,2.052,10.775
		c-0.262,0.85-0.748,2.494,1.106,2.832c1.586,0.29,2.709-0.232,3.161-1.871l-0.164-1.117c0.001-0.284,0.003-0.569,0.004-0.853
		c1.402-2.397,1.616-5.163,1.678-7.75c0.117-4.85,0.137-9.57,1.239-14.425c1.066-4.702,0.42-9.789,0.585-14.704
		c0.09-2.676,0.231-5.368,1.685-7.75c1.678-2.75,4.033-2.651,5.629,0.192c1.93,3.442,1.494,7.263,1.707,10.958
		c0.191,3.294,0.07,6.604,0.149,9.906c0.079,3.211,2.279,6.038,1.682,9.4c-0.775,4.364,0.447,8.686,0.435,13.038
		c0,0.208,0.648,0.417,0.993,0.626c0.338,2.47-0.293,5.244,2.423,7.475c-0.131-1.046-0.252-1.628-0.268-2.213
		c-0.076-2.844,1.549-5.342,1.169-8.421c-0.287-2.332-0.563-4.945,0.313-7.527c1.158-3.408,1.14-7.083,1.252-10.723
		c0.145-4.686-0.933-9.751,2.944-13.693c0.778-0.791-1.13-2.695,0.699-2.814c1.9-0.122,0.233,2.191,1.149,2.739
		c1.986,1.188,2.783,3.086,2.851,5.081c0.328,9.508,2.171,18.901,2.042,28.449c-0.032,2.446,0.535,4.958,1.669,7.469
		c1.006-1.242,1.878-2.185,2.596-3.235c1.294-1.891,3.712-3.063,3.703-5.802c-0.002-0.7-0.317-1.727,0.651-1.928
		c1.197-0.248,0.773,1.299,1.49,1.688c1.855-2.013,3.051-4.371,3.7-7.021c0.073-0.039,0.208-0.078,0.208-0.118
		c0.002-0.138-0.043-0.279-0.071-0.419c0.036-0.469,0.072-0.938,0.107-1.408c2.468-4.194,4.482-8.602,5.371-13.396
		c0.432-2.335,0.183-2.396,2.324-1.759c0.51,0.15,0.38-0.248,0.479-0.45c0.647-1.328,1.318-1.189,1.934,0
		c0.241,0.466,0.352,0.771,0.655,0.055c1.175-2.771,1.755,0.2,3.016,0.499c-0.336-2.653-2.867-5.624,1.088-7.237
		c-0.652-2.621,1.16-4.302,2.198-6.375c1.474-2.938,2.355-6.176,3.49-9.284c0.311-3.429,2.355-6.745,1.614-10.119
		c-0.917-4.174,0.997-7.866,1.058-11.85c0.073-4.76,0.015-9.605,1.828-14.212c1.045-2.653,0.508-5.545,0.547-8.326
		c0.019-1.42,0.531-2.573,1.78-2.554c1.006,0.017,1.047,1.405,1.033,2.401c-0.023,1.562-0.006,3.125-0.006,4.687
		c0.27,0.027,0.541,0.054,0.811,0.08c0.53-4.035,1.362-8.057,1.525-12.107c0.331-8.241,0.092-16.518,1.428-24.69
		c0.361-2.205,1.209-4.36,3.108-5.824c0.837-0.645,0.46-1.711,0.678-2.173c0.772-1.636-0.513-3.56,1.136-5.079
		c0.977-0.9-0.511-2.724,0.633-4.908c0.449,3.922,0.813,7.014,1.147,10.108c0.042,0.392-0.267,1.013-0.092,1.17
		c5.891,5.289,4.719,12.508,5.179,19.216c0.377,5.492,0.292,11.016,0.545,16.519c0.114,2.485,2.015,4.679,1.775,7.354
		c0-1.715,0.012-3.429-0.004-5.143c-0.01-1.105,0.802-1.641,1.613-1.651c0.764-0.01,1.18,0.823,1.106,1.646
		c-0.455,5.01,1.068,9.64,2.29,14.409c0.588,2.293,0.781,5.141,0.424,7.535c-0.723,4.848,2.364,9.203,1.197,14.043
		c-0.494,2.052-0.236,4.196,1.148,6.154c0.923,1.307-0.02,3.115,0.792,4.768c1.378,2.806,1.598,6.35,3.432,8.705
		c1.418,1.822,1.824,3.313,1.647,5.289c-0.031,0.341-0.45,0.647-0.754,1.057c2.305,0.351,5.38,0.359,2.195,3.967
		c-0.498,0.563-0.069,1.946,0.263,3.184c0.455-3.047,3.057-1.379,4.426-2.329c0.451-0.313,0.42,1.392,0.896,2.105
		c1.023-0.252,0.35-2.216,1.734-1.708c0.949,0.349,0.433,1.371,0.322,1.997c-0.524,2.964,1.941,4.845,2.574,7.406
		c0.584,2.36,1.748,4.579,2.656,6.861c1.282,3.007,2.343,6.127,4.518,8.731c0.726-0.438,0.189-1.956,1.909-2.028
		c-0.116,4.035,2.641,6.62,5.019,9.404c0.469,0.548,0.803,1.686,1.787,1.248c0.563-0.251,0.557-1.167,0.76-1.83
		c1.568-5.12-0.05-10.453,1.2-15.565l0.097-0.139c0.125-0.155,0.248-0.31,0.372-0.465c0.538-5.993,1.026-11.99,1.633-17.975
		c0.335-3.302,3.618-5.712,2.894-9.449c0.63,5.079,4.837,9.118,3.814,14.521c0.089,8.196,2.246,16.227,1.886,24.468
		c-0.115,2.635,0.801,5.092,2.381,7.736c0.622-1.491,0.432-2.621,0.731-3.673c0.994-3.484,1.699-7.137,1.851-10.753
		c0.174-4.165-0.372-8.333,0.927-12.447c0.459-1.455,0.763-3.101,0.261-4.698c1.007-5.024,0.396-10.169,1.251-15.239
		c0.656-3.89,4.04-6.701,3.572-11.018c0.731,3.701,2.707,6.662,3.886,9.926c1.846,5.111,0.627,10.452,1.312,15.645
		c0.005,0.428-0.042,0.866,0.022,1.285c0.923,6.045,2.195,12.045,1.418,18.245c-0.179,1.428,0.388,3.485,1.577,3.974
		c1.462,0.601,3.034-0.654,4.068-1.992c0.389-0.504,0.619-1.13,0.949-1.751c0.657,0.734,0.859,0.857,0.898,1.021
		c0.307,1.252-0.177,3.207,1.942,3.035c2.062-0.167,1.118-2.069,1.153-3.127c0.499-14.84,0.891-29.684,1.309-44.525
		c0.89-7.606-0.101-15.326,0.844-22.859c1.047-8.351-2.134-15.518-4.546-22.989c-0.4-1.238-0.696-2.775-2.596-2.718
		c-0.22,0.007-0.671-0.404-0.646-0.563c0.655-4.179-3.035-6.618-4.202-10.263c2.217-0.249,3.835,0.658,5.398,1.787
		c4.59,3.317,4.846,3.287,8.755-0.848c3.945,5.328,9.606,4.379,12.913-2.163c4.854,6.625,10.284,7.471,13.199,1.683
		c1.14,1.861,2.087,3.898,4.656,3.577c1.026-0.128,1.913,0.013,2.739-1.117c1.75-2.394,5.128-2.473,7.668-5.279
		c-0.863,3.51-2.976,5.432-4.029,7.885c-0.502,1.17-1.337,2.167-1.134,3.58c0.069,0.473-0.051,1.189-0.37,1.471
		c-5.484,4.842-7.171,11.864-7.282,18.189c-0.339,19.114,0.642,38.253,1.117,57.381c0.008,0.317,0.116,0.632,0.177,0.949
		c-0.329,11.606,1.038,23.097,2.587,34.613c1.321-11.059,0.663-22.163,0.956-33.233c0.155-4.327-0.611-8.699,0.709-12.965
		c0.419-1.357,0.927-2.987,2.114-3.471c4.584-1.867,4.245-5.629,4.058-9.421c0.558,0.008,1.115,0.018,1.672,0.026
		c-0.807,1.918,1.5,3.876-0.08,5.902c-0.194,0.247,1.058,1.409,1.949,1.813C230.156,288.908,231.57,290.084,233.107,291.137
		 M-90.444,322.095c-0.352,3.542,0.47,6.89,1.461,10.151v-10.191c0.285-2.014,1.01-4.149-1.72-5.693
		C-90.607,318.487-90.525,320.291-90.444,322.095 M-130.662,350.172c-1.97-0.989-3.301-0.035-3.504,1.771
		c-0.258,2.311,1.069,3.534,3.543,3.065c1.008,0.229,1.308-0.291,1.304-1.191c-0.009-1.794,0.047-3.588-0.008-5.38
		c-0.027-0.854,0.407-2.306-0.979-2.213c-1.825,0.121-0.475,1.569-0.59,2.408C-130.963,349.124-130.75,349.656-130.662,350.172
		 M185.897,270.461c-0.469,3.021-0.659,6.051-0.277,9.097c0.113,0.383,0.226,0.766,0.339,1.149c-0.08,0.198-0.226,0.396-0.232,0.597
		c-0.382,13.501-0.743,27.002-1.139,40.502c-0.049,1.67,0.595,1.668,1.948,1.226c3.046-0.993,3.588-4.328,5.87-6l-0.047-0.052
		c0.158,2.67-0.331,5.382,0.522,8.005c0.256,0.788,0.208,1.916,1.192,2.086c0.878,0.153,1.697-0.575,2.067-1.32
		c1.447-2.919,4.084-5.241,4.274-9.51c0.522,2.407,0.624,4.243-0.303,5.477c-2.213,2.938-1.194,5.85-0.495,8.819
		c0.269,1.146,0.656,2.267,1.052,3.374c0.379,1.064,0.058,1.784-1.048,1.806c-3.88,0.068-3.528,2.365-2.868,5.043
		c0.538,2.181,0.932,4.411,1.197,6.644c0.236,1.996,2.102,1.258,3.028,2.047c0.761-1.758,2.181-0.536,3.022-0.374
		c1.781,0.343,3.306,1.319,5.234,0.039c1.409-0.935,1.798,0.872,2.661,1.82c0.398-16.818,0.988-33.479,0.337-50.15
		c0.329-6.346-0.26-12.669-0.447-19.002c-0.41-13.852-0.776-27.707-1.077-41.562c-0.043-1.951-0.404-2.825-2.665-2.763
		c-6.326,0.176-12.661,0.112-18.992,0.04c-1.654-0.019-2.452,0.188-2.474,2.196c-0.105,9.417-0.398,18.831-0.624,28.246
		c-0.065,0.055-0.191,0.121-0.183,0.162c0.029,0.148,0.102,0.29,0.159,0.433C185.917,269.178,185.908,269.818,185.897,270.461
		 M198.584,235.435c2.251,0,4.502-0.002,6.753,0.001c5.302,0.009,5.188,0.01,5.17-5.239c-0.007-2.048-0.686-2.486-2.59-2.441
		c-5.345,0.124-10.694,0.044-16.042,0.047c-5.244,0.003-5.155,0.006-5.221,5.314c-0.023,1.845,0.527,2.42,2.328,2.356
		C192.18,235.358,195.384,235.439,198.584,235.435 M-95.38,316.488c-3.553,8.286-6.784,15.82-10.168,23.712
		c2.049,0,3.438,0.004,4.827-0.001c1.158-0.003,2.062-0.274,2.366-1.631C-96.774,331.538-94.94,324.548-95.38,316.488
		 M-174.665,354.535c4.274-0.138,8.867,2.032,12.296-1.928c0.78-0.9,2.664-1.619,1.361-3.015c-1.323-1.417-3.267-2.899-5.345-1.497
		C-169.251,350.052-171.905,352.37-174.665,354.535 M410.437,316.5c0.31-1.106,0.647-2.044,0.824-3.01
		c0.791-4.338,0.187-5.068-4.167-4.932c-1.033,0.032-2.748-0.575-2.671,1.274c0.063,1.539-1.124,3.349,1.302,4.687
		c1.128,0.623,3.49-0.802,3.323,1.989c0.613-0.663,0.048-1.501,0.897-1.909C410.101,315.197,410.249,315.773,410.437,316.5
		 M420.021,313.375c0.63-1.174,0.272-2.427,1.791-3.212c1.019-0.525,0.621-2.589,0.31-3.913c-0.347-1.481-1.736-0.815-2.705-0.921
		c-0.738-0.08-1.505,0.077-2.24-0.016c-1.881-0.237-2.456,0.652-2.383,2.397c0.064,1.529-0.189,3.202,2.187,2.858
		C419.055,310.269,420.289,310.861,420.021,313.375 M-173.177,360.773c1.816,0,3.632,0.012,5.448-0.005
		c0.843-0.007,1.836,0.116,1.771-1.208c-0.053-1.07-0.886-1.049-1.636-1.051c-3.632-0.011-7.265-0.014-10.896,0.006
		c-0.828,0.004-1.855-0.146-1.752,1.203c0.099,1.293,1.132,1.041,1.938,1.055C-176.596,360.806-174.886,360.783-173.177,360.773
		 M-160.504,360.761c0.663-0.719,2.957,1.156,3.008-0.991c0.056-2.341-2.25-0.902-3.472-1.232c-0.594-0.16-1.27-0.021-1.909-0.004
		c-0.747,0.023-1.177,0.37-1.185,1.166c-0.008,0.862,0.53,1.058,1.241,1.061C-162.184,360.763-161.544,360.761-160.504,360.761
		 M-190.564,346.23c4.721-2.126,1.343-4.689,2.008-6.729C-190.88,341.244-188.951,343.717-190.564,346.23 M-188.834,353.425
		c1.047-2.075,0.357-3.991,0.56-5.801c0.024-0.215-0.22-0.583-0.43-0.678c-0.456-0.203-1.047,0.202-0.982,0.477
		C-189.247,349.277-190.655,351.395-188.834,353.425 M-157.261,333.044c-0.729,2.123-0.704,3.764-0.247,5.369
		c0.097,0.345,0.844,0.175,1.033-0.203C-155.648,336.556-156.054,334.993-157.261,333.044 M-161.744,354.808
		c1.291-0.229,2.873,0.959,3.706-0.636c0.181-0.346-0.365-1.55-0.682-1.594C-160.26,352.364-160.935,353.687-161.744,354.808
		 M401.683,307.205c-0.459,1.077-1.4,1.783-0.401,2.728c0.182,0.17,0.803,0.211,0.815,0.174
		C402.379,309.274,402.414,308.439,401.683,307.205"/>
</g>
<g>
	<defs>
		<rect id="SVGID_3_" x="-193" y="-84.28" width="841.89" height="595.28"/>
	</defs>
	<clipPath id="SVGID_4_">
		<use xlink:href="#SVGID_3_"  overflow="visible"/>
	</clipPath>
	<path clip-path="url(#SVGID_4_)" fill="#BE1E2D" d="M265.506,72.412c3.574,1.574,7.144,3.195,10.594,5.052
		c1.753,0.881,3.439,1.877,5.164,2.817l2.534,1.496c0.848,0.495,1.691,0.999,2.517,1.531l2.488,1.581l2.444,1.648
		c1.644,1.083,3.214,2.267,4.821,3.406c3.146,2.364,6.269,4.778,9.243,7.37c12,10.267,22.371,22.484,30.848,35.942
		c8.384,13.52,14.736,28.346,18.817,43.808c1.021,3.866,1.908,7.769,2.639,11.706c0.7,3.942,1.306,7.905,1.732,11.892
		c0.856,7.972,1.151,16.021,0.794,24.05c-0.346,8.03-1.295,16.042-2.828,23.947c-1.545,7.903-3.709,15.688-6.408,23.285
		c-5.395,15.201-13.157,29.563-22.805,42.525c-9.653,12.963-21.289,24.458-34.343,34.03c-13.075,9.549-27.603,17.111-42.91,22.389
		c-15.322,5.227-31.388,8.24-47.573,8.813c-16.178,0.538-32.441-1.314-48.033-5.593c-31.215-8.47-59.652-26.51-80.521-50.97
		c-5.242-6.09-9.974-12.606-14.221-19.406c-4.248-6.8-7.972-13.92-11.106-21.279c-3.144-7.353-5.747-14.927-7.76-22.641
		c-0.531-1.92-0.955-3.869-1.42-5.804c-0.407-1.947-0.84-3.904-1.199-5.826c-0.749-3.862-1.454-7.733-2.06-11.623
		c-1.214-7.781-2.206-15.605-2.784-23.47c-0.583-7.862-0.815-15.764-0.386-23.646c0.406-7.876,1.348-15.739,3.145-23.409
		c1.818-7.657,4.404-15.141,8.039-22.068c-3.036,7.207-5.119,14.748-6.352,22.404c-1.279,7.648-1.753,15.404-1.675,23.139
		c0.168,15.482,2.348,30.877,5.522,46.041c0.804,3.791,1.64,7.575,2.526,11.352c0.433,1.902,0.922,3.74,1.389,5.599
		c0.523,1.843,1.004,3.694,1.59,5.517c2.229,7.317,5.014,14.454,8.292,21.336c1.618,3.453,3.428,6.809,5.293,10.125
		c1.855,3.325,3.888,6.544,5.986,9.712c4.223,6.324,8.929,12.308,14.014,17.936c10.18,11.252,22.009,20.96,34.935,28.797
		c12.943,7.811,26.984,13.771,41.586,17.53c29.188,7.626,60.527,6.263,88.987-3.586c28.501-9.695,53.919-28.083,72.227-52.057
		c9.19-11.957,16.601-25.291,21.984-39.414c1.341-3.533,2.542-7.119,3.635-10.739c1.09-3.622,2.003-7.294,2.84-10.984
		c1.636-7.39,2.729-14.905,3.255-22.472c0.518-7.564,0.509-15.176-0.065-22.757c-0.283-3.792-0.737-7.571-1.282-11.339
		c-0.59-3.76-1.256-7.514-2.088-11.236c-1.623-7.455-3.869-14.773-6.573-21.924c-2.707-7.153-6.03-14.072-9.75-20.779
		c-3.749-6.689-7.979-13.132-12.683-19.23c-4.719-6.084-9.869-11.855-15.423-17.239c-2.753-2.718-5.664-5.273-8.612-7.789
		c-2.99-2.465-6.03-4.882-9.193-7.139C279.069,80.157,272.386,76.12,265.506,72.412"/>
	<path clip-path="url(#SVGID_4_)" fill="#2B3990" d="M52.954,270.09c2.517,6.548,5.498,12.911,8.876,19.049
		c4.176,7.556,8.964,14.777,14.378,21.499c5.429,6.708,11.422,12.951,17.895,18.644c25.838,22.852,59.635,36.475,94.045,37.701
		c8.594,0.306,17.211-0.084,25.738-1.204c8.536-1.075,16.944-3.045,25.153-5.593c8.201-2.575,16.217-5.773,23.862-9.71
		c7.638-3.947,14.938-8.537,21.804-13.706c6.866-5.166,13.32-10.894,19.198-17.172c5.867-6.284,11.202-13.065,15.933-20.244
		c4.73-7.181,8.855-14.759,12.318-22.633c3.476-7.869,6.181-16.068,8.256-24.412c8.39-33.402,4.586-69.649-10.228-100.798
		c-3.681-7.794-8.008-15.291-12.974-22.35c-4.992-7.04-10.584-13.655-16.698-19.753c-6.113-6.099-12.749-11.679-19.812-16.664
		c-1.793-1.206-3.557-2.458-5.375-3.627l-5.525-3.395l-5.68-3.135c-0.94-0.536-1.933-0.971-2.896-1.461l-2.907-1.44
		c-15.623-7.443-32.532-12.221-49.795-14.036c-8.634-0.878-17.348-0.98-26.013-0.372c-8.668,0.591-17.292,1.92-25.762,3.943
		c8.422-2.208,17.03-3.731,25.716-4.517c8.687-0.764,17.448-0.798,26.154-0.058c17.405,1.54,34.553,6.075,50.491,13.35
		c1.972,0.95,3.969,1.854,5.913,2.861l5.785,3.118l5.635,3.385c1.854,1.167,3.655,2.417,5.486,3.622
		c7.212,4.984,14.004,10.579,20.277,16.713c6.273,6.132,12.028,12.803,17.18,19.917c5.127,7.134,9.612,14.726,13.443,22.634
		c3.826,7.912,6.997,16.144,9.458,24.59c2.393,8.465,4.076,17.13,5.039,25.877c1.986,17.498,0.711,35.335-3.402,52.454
		c-2.068,8.561-4.837,16.962-8.382,25.03c-3.533,8.073-7.746,15.845-12.581,23.21c-4.835,7.366-10.291,14.325-16.296,20.778
		c-6.014,6.444-12.622,12.329-19.654,17.64c-7.046,5.298-14.545,9.987-22.383,14.021c-7.847,4.022-16.067,7.287-24.475,9.91
		c-16.807,5.299-34.552,7.577-52.151,6.849l-3.299-0.181c-1.099-0.063-2.201-0.1-3.294-0.235c-2.19-0.233-4.383-0.443-6.57-0.696
		l-6.529-1.003c-2.168-0.379-4.317-0.863-6.477-1.29c-8.597-1.902-17.029-4.532-25.18-7.851
		c-8.144-3.326-16.034-7.299-23.484-11.981c-7.441-4.694-14.48-10.013-21.02-15.883c-6.541-5.871-12.581-12.292-18.037-19.176
		c-5.442-6.898-10.237-14.291-14.403-22.012c-1.468-2.73-2.858-5.505-4.165-8.315"/>
	<path clip-path="url(#SVGID_4_)" fill="#BE1E2D" d="M49.479,257.611c0.914,3.443,1.945,6.855,3.095,10.229
		c2.754,7.948,6.217,15.638,10.266,22.997c4.063,7.349,8.721,14.374,13.987,20.914c5.281,6.524,11.111,12.598,17.408,18.136
		c25.136,22.229,58.013,35.482,91.488,36.674c8.36,0.299,16.743-0.081,25.038-1.17c8.303-1.046,16.483-2.963,24.469-5.442
		c7.979-2.505,15.775-5.613,23.214-9.444c7.431-3.839,14.532-8.306,21.211-13.333c6.679-5.026,12.958-10.598,18.676-16.705
		c5.708-6.114,10.897-12.709,15.499-19.694c4.602-6.983,8.615-14.356,11.983-22.016c3.381-7.657,6.013-15.633,8.031-23.749
		c8.162-32.494,4.463-67.755-9.949-98.057c-3.58-7.582-7.79-14.875-12.621-21.742c-4.855-6.848-10.295-13.284-16.243-19.217
		c-5.947-5.932-12.402-11.361-19.273-16.21c-1.744-1.173-3.46-2.391-5.229-3.528l-5.375-3.304l-5.525-3.049
		c-0.914-0.521-1.879-0.944-2.817-1.421l-2.828-1.401c-15.198-7.24-31.648-11.889-48.441-13.654
		c-8.399-0.854-16.876-0.954-25.306-0.363c-8.432,0.576-16.821,1.869-25.061,3.836c8.193-2.147,16.567-3.629,25.017-4.393
		c8.451-0.744,16.974-0.776,25.442-0.058c16.932,1.499,33.616,5.912,49.118,12.988c1.918,0.925,3.861,1.803,5.753,2.783l5.628,3.034
		l5.481,3.293c1.804,1.134,3.556,2.351,5.337,3.523c7.017,4.848,13.624,10.292,19.727,16.258c6.103,5.966,11.7,12.454,16.712,19.376
		c4.987,6.939,9.352,14.325,13.078,22.018c3.722,7.697,6.807,15.705,9.2,23.921c2.328,8.235,3.966,16.664,4.902,25.174
		c1.933,17.023,0.691,34.373-3.31,51.027c-2.013,8.328-4.706,16.501-8.154,24.35c-3.438,7.854-7.535,15.413-12.239,22.578
		c-4.702,7.166-10.011,13.935-15.852,20.213c-5.851,6.271-12.279,11.995-19.121,17.161c-6.854,5.154-14.149,9.715-21.773,13.64
		c-7.633,3.914-15.631,7.09-23.809,9.642c-16.351,5.154-33.612,7.371-50.733,6.661l-3.209-0.175c-1.07-0.062-2.141-0.097-3.204-0.23
		c-2.131-0.225-4.264-0.43-6.392-0.675l-6.351-0.978c-2.11-0.369-4.201-0.839-6.301-1.255c-8.364-1.85-16.567-4.408-24.496-7.637
		c-7.922-3.237-15.597-7.101-22.845-11.655c-7.238-4.566-14.086-9.741-20.448-15.452c-6.363-5.711-12.239-11.958-17.547-18.653
		c-5.293-6.71-10.481-13.381-14.534-20.891c-2.986-5.557-6.266-11.566-8.543-17.448"/>
</g>
<g>
	<defs>
		<path id="SVGID_5_" d="M90.19,62.304c-0.991,1.294-5.167,1.34-6.266,5.918c-1.481,6.139,5.272,9.962,0.372,11.72
			c-5.406-2.053-0.186-5.772-6-4.999c2.626,7.231-20.842,11.534-23.731,25.527c-1.926,8.973,4.083,7.473,1.008,12.88
			c-1.67,2.181-5.959-1.147-6.491-5.157C8.813,202.128,49.257,282.13,49.257,282.13l2.7-7.808c0,0-32.709-78.8,8.018-151.345
			c15.911-24.312,27.466-22.976,32.963-21.639c1.898,0.461,3.075,0.922,3.46,0.328c11.051-19.013-2.019-28.496-0.452-35.867
			c1.564-7.376-0.848-7.151-4.88-10.086C92.329,59.511,91.459,60.647,90.19,62.304"/>
	</defs>
	<clipPath id="SVGID_6_">
		<use xlink:href="#SVGID_5_"  overflow="visible"/>
	</clipPath>
	
		<linearGradient id="SVGID_7_" gradientUnits="userSpaceOnUse" x1="-193" y1="510.9971" x2="-192" y2="510.9971" gradientTransform="matrix(-111.4863 296.1706 296.1706 111.4863 -172729.9375 171.275)">
		<stop  offset="0" style="stop-color:#9B8954"/>
		<stop  offset="0.328" style="stop-color:#9B8954"/>
		<stop  offset="0.524" style="stop-color:#9B8954"/>
		<stop  offset="0.7298" style="stop-color:#9B8954"/>
		<stop  offset="1" style="stop-color:#BF1E2D"/>
	</linearGradient>
	<polygon clip-path="url(#SVGID_6_)" fill="url(#SVGID_7_)" points="182.101,83.814 95.207,314.651 -65.838,254.029 21.055,23.192 	
		"/>
</g>
<g>
	<defs>
		<path id="SVGID_8_" d="M124.002,13.135c-4.679,2.832-10.043,9.419-9.265,15.271c1.111,8.368,7.133,6.517,3.563,11.179
			c-7.56-1.298-6.328-5.503-6.328-5.503s-9.603,5.025-10.627,18.23c-0.989,12.783,8.023,16.488,12.325,15.92
			c4.303-0.567,5.521,22.302-9.635,26.266c-0.751,2.047-1.379,4.446,0.579,5.945c1.953,1.494,12.404-0.452,18.904-4.986
			c6.496-4.536,16.123-22.053,10.492-28.524c-5.632-6.475,4.131-10.097,0.702-15.311c-1.869,2.441-3.547,1.763-5.164,1.085
			c-1.87-0.786-3.656-1.572-5.557,2.479c-5.352-6.079,11.242-11.291,9.943-21.085c-0.851-6.439-6.641-6.732-7.307-11.719
			c-0.665-4.991,2.052-4.711,3.181-8.339c1.125-3.628-4.428-4.991-2.802-9.323C122.265,8.709,128.683,10.302,124.002,13.135"/>
	</defs>
	<clipPath id="SVGID_9_">
		<use xlink:href="#SVGID_8_"  overflow="visible"/>
	</clipPath>
	
		<linearGradient id="SVGID_10_" gradientUnits="userSpaceOnUse" x1="-193" y1="510.9941" x2="-192" y2="510.9941" gradientTransform="matrix(-111.4863 296.1706 296.1706 111.4863 -172712.8125 177.775)">
		<stop  offset="0" style="stop-color:#9B8954"/>
		<stop  offset="0.328" style="stop-color:#9B8954"/>
		<stop  offset="0.524" style="stop-color:#9B8954"/>
		<stop  offset="0.7298" style="stop-color:#9B8954"/>
		<stop  offset="1" style="stop-color:#BF1E2D"/>
	</linearGradient>
	<polygon clip-path="url(#SVGID_9_)" fill="url(#SVGID_10_)" points="171.694,16.786 134.765,114.89 68.303,89.872 105.231,-8.232 	
		"/>
</g>
<g>
	<defs>
		<path id="SVGID_11_" d="M102.27,105.002c-2.406-0.07-4.941-0.14-7.64-0.135c-21.129,0.04-38.568,27.614-34.183,33.243
			c1.545-2.018,6.008-4.713,9.084-5.121c-1.498-11.313,17.825-16.415,21.808-11.121c-2.502,0.329-8.195,1.625-5.807,8.435
			c3.428,8.747,26.51,6.249,32.773-4.488c-10.535,3.145-8.101-6.832-8.101-6.832s24.274,7.785,35.02-36.622
			C129.151,105.958,118.7,105.48,102.27,105.002"/>
	</defs>
	<clipPath id="SVGID_12_">
		<use xlink:href="#SVGID_11_"  overflow="visible"/>
	</clipPath>
	
		<linearGradient id="SVGID_13_" gradientUnits="userSpaceOnUse" x1="-193" y1="510.9961" x2="-192" y2="510.9961" gradientTransform="matrix(-111.4863 296.1706 296.1706 111.4863 -172711.4375 178.275)">
		<stop  offset="0" style="stop-color:#9B8954"/>
		<stop  offset="0.328" style="stop-color:#9B8954"/>
		<stop  offset="0.524" style="stop-color:#9B8954"/>
		<stop  offset="0.7298" style="stop-color:#9B8954"/>
		<stop  offset="1" style="stop-color:#BF1E2D"/>
	</linearGradient>
	<polygon clip-path="url(#SVGID_12_)" fill="url(#SVGID_13_)" points="163.915,89.396 134.158,168.447 37.371,132.014 
		67.128,52.964 	"/>
</g>
<g>
	<defs>
		<path id="SVGID_14_" d="M51.556,272.404c1.309,3.916,2.508,1.282,1.412-2.947c-7.756-22.983-8-44.995-7.851-60.588
			c0.471-49.407,15.089-58.066,22.518-62.441c2.493-1.467,5.474-1.226,8.278-0.985c4.781,0.412,9.047,0.823,9.504-7.239
			c-7.512,2.838-7.627,1.379-13.151-1.258c-0.761-0.363-1.587-0.543-2.468-0.542C54.643,136.407,23.842,189.491,51.556,272.404"/>
	</defs>
	<clipPath id="SVGID_15_">
		<use xlink:href="#SVGID_14_"  overflow="visible"/>
	</clipPath>
	
		<linearGradient id="SVGID_16_" gradientUnits="userSpaceOnUse" x1="-193" y1="510.999" x2="-192" y2="510.999" gradientTransform="matrix(-111.4863 296.1706 296.1706 111.4863 -172720.9375 174.525)">
		<stop  offset="0" style="stop-color:#9B8954"/>
		<stop  offset="0.328" style="stop-color:#9B8954"/>
		<stop  offset="0.524" style="stop-color:#9B8954"/>
		<stop  offset="0.7298" style="stop-color:#9B8954"/>
		<stop  offset="1" style="stop-color:#BF1E2D"/>
	</linearGradient>
	<polygon clip-path="url(#SVGID_15_)" fill="url(#SVGID_16_)" points="131.549,153.768 77.775,296.622 -22.29,258.955 
		31.484,116.101 	"/>
</g>
<g>
	<defs>
		<path id="SVGID_17_" d="M58.056,177.355c-7.147,4.811-7.373,12.433-3.962,16.715c-3.139-5.479,1.258-11.804,5.108-10.435
			c3.853,1.366,3.817,6.285,1.503,6.02c0.891-1.627-0.355-4.454-2.719-3.449c-2.88,0.675-2.739,6.207,0.801,8.123
			c2.799,1.513,5.724,0.205,7.222-2.23c1.858-3.023,1.054-7.671,3.064-8.065c-0.515-0.646-2.056-0.387-3.396-0.128
			c-1.229,0.237-2.29,0.474-2.237,0.013c0.109-0.96,4.013-2.458,3.771-8.428c-0.242-5.971-2.44-7.755-2.44-7.755
			S65.468,172.363,58.056,177.355"/>
	</defs>
	<clipPath id="SVGID_18_">
		<use xlink:href="#SVGID_17_"  overflow="visible"/>
	</clipPath>
	
		<linearGradient id="SVGID_19_" gradientUnits="userSpaceOnUse" x1="-193" y1="510.9941" x2="-192" y2="510.9941" gradientTransform="matrix(-111.4863 296.1706 296.1706 111.4863 -172723.1875 173.775)">
		<stop  offset="0" style="stop-color:#9B8954"/>
		<stop  offset="0.328" style="stop-color:#9B8954"/>
		<stop  offset="0.524" style="stop-color:#9B8954"/>
		<stop  offset="0.7298" style="stop-color:#9B8954"/>
		<stop  offset="1" style="stop-color:#BF1E2D"/>
	</linearGradient>
	<polygon clip-path="url(#SVGID_18_)" fill="url(#SVGID_19_)" points="78.34,171.224 66.791,201.905 41.416,192.354 52.965,161.673 
			"/>
</g>
<g>
	<defs>
		<path id="SVGID_20_" d="M53.982,201.197c0.446,2.614,1.41,5.285-0.419,7.365c0.914-0.728,4.703-3.315,6.036-6.052
			c1.333-2.738,1.384-5.629-0.638-6.586c-0.335-0.158-0.674-0.23-1.01-0.23C55.701,195.694,53.593,198.923,53.982,201.197"/>
	</defs>
	<clipPath id="SVGID_21_">
		<use xlink:href="#SVGID_20_"  overflow="visible"/>
	</clipPath>
	
		<linearGradient id="SVGID_22_" gradientUnits="userSpaceOnUse" x1="-193" y1="511.002" x2="-192" y2="511.002" gradientTransform="matrix(-111.4863 296.1706 296.1706 111.4863 -172721.1875 174.525)">
		<stop  offset="0" style="stop-color:#9B8954"/>
		<stop  offset="0.328" style="stop-color:#9B8954"/>
		<stop  offset="0.524" style="stop-color:#9B8954"/>
		<stop  offset="0.7298" style="stop-color:#9B8954"/>
		<stop  offset="1" style="stop-color:#BF1E2D"/>
	</linearGradient>
	<polygon clip-path="url(#SVGID_21_)" fill="url(#SVGID_22_)" points="65.226,197.291 60.062,211.008 49.32,206.965 54.484,193.248 
			"/>
</g>
<g>
	<defs>
		<rect id="SVGID_23_" x="-193" y="-84.28" width="841.89" height="595.28"/>
	</defs>
	<clipPath id="SVGID_24_">
		<use xlink:href="#SVGID_23_"  overflow="visible"/>
	</clipPath>
	<path clip-path="url(#SVGID_24_)" fill="#9B8954" d="M141.59,148.089v0.875c-1.26,0.492-2.819,1.88-3.823,5.191l-7.711,24.989
		c-0.469-0.022-1.003-0.043-1.537-0.043c-0.534,0-1.025,0.021-1.495,0.043l-6.451-19.457l-6.492,19.457
		c-0.47-0.022-1.004-0.043-1.538-0.043c-0.534,0-1.025,0.021-1.495,0.043l-9.804-27.381c-0.768-2.115-1.922-2.756-2.755-2.799
		v-0.875c1.73,0.085,4.293,0.128,6.515,0.128c2.328,0,4.229-0.043,5.382-0.128v0.875c-1.132,0.15-1.538,0.791-1.538,1.709
		c0,0.577,0.15,1.239,0.406,1.965l6.343,18.496l4.464-13.007l-2.264-6.813c-0.598-1.815-1.453-2.285-2.371-2.35v-0.875
		c1.602,0.085,3.994,0.128,6.237,0.128c2.563,0,4.912-0.043,6.301-0.128v0.875c-1.965,0.086-2.991,0.3-2.991,1.624
		c0,0.513,0.15,1.175,0.449,2.05l6.001,18.304l4.166-13.242c0.661-2.135,0.982-3.801,0.982-5.083c0-2.627-1.346-3.588-3.759-3.653
		v-0.875c1.965,0.085,3.631,0.128,5.446,0.128C139.539,148.217,140.714,148.174,141.59,148.089"/>
	<path clip-path="url(#SVGID_24_)" fill="#9B8954" d="M174.864,148.965c-2.798,0.128-3.289,0.577-3.289,3.759v21.7
		c0,3.182,0.534,3.631,3.289,3.759v0.876c-1.431-0.086-3.951-0.129-6.642-0.129c-2.542,0-5.254,0.043-6.878,0.129v-0.876
		c2.798-0.128,3.29-0.577,3.29-3.759v-10.508h-11.598v10.508c0,3.182,0.513,3.631,3.289,3.759v0.876
		c-1.58-0.086-4.186-0.129-6.621-0.129c-2.798,0-5.425,0.043-6.898,0.129v-0.876c2.776-0.128,3.267-0.577,3.267-3.759v-21.7
		c0-3.182-0.512-3.631-3.267-3.759v-0.875c1.473,0.085,4.1,0.127,6.898,0.127c2.435,0,5.041-0.042,6.621-0.127v0.875
		c-2.798,0.128-3.289,0.577-3.289,3.759v10.316h11.598v-10.316c0-3.182-0.513-3.631-3.29-3.759v-0.875
		c1.624,0.085,4.336,0.127,6.878,0.127c2.691,0,5.211-0.042,6.642-0.127V148.965z"/>
	<path clip-path="url(#SVGID_24_)" fill="#9B8954" d="M208.801,163.318c0,9.781-6.408,16.36-15.485,16.36
		c-9.269,0-15.442-5.831-15.442-15.848c0-9.782,6.386-16.36,15.485-16.36C202.606,147.47,208.801,153.301,208.801,163.318
		 M185.136,163.659c0,9.313,3.738,15.229,8.351,15.229c4.891,0,8.052-6.344,8.052-15.399c0-9.313-3.738-15.229-8.373-15.229
		C188.276,148.26,185.136,154.603,185.136,163.659"/>
	<path clip-path="url(#SVGID_24_)" fill="#9B8954" d="M255.956,154.731c0,1.303,0.043,2.521,0.129,3.332h-1.004
		c-1.153-6.792-3.439-8.97-7.519-8.97h-1.452c-2.542,0-3.012,0.384-3.012,3.118v11.02h1.538c3.502,0,4.741-3.417,5.19-5.787h1.025
		c-0.129,1.922-0.172,3.225-0.172,4.25c0,0.747,0.021,1.367,0.021,1.965c0,1.452,0.043,2.884,0.278,6.215h-1.003
		c-0.472-3.054-1.839-5.767-5.341-5.767h-1.538v10.06c0,3.418,0.79,3.887,4.678,3.93v0.961c-1.794-0.064-4.849-0.128-7.966-0.128
		c-2.521,0-5.041,0.064-6.942,0.128v-0.875c2.776-0.129,3.268-0.577,3.268-3.76v-21.699c0-3.183-0.512-3.631-3.268-3.76v-0.875
		c4.763,0.128,11.32,0.128,14.246,0.128c2.67,0,6.45,0,9.142-0.128C256.042,150.737,255.956,153.428,255.956,154.731"/>
	<path clip-path="url(#SVGID_24_)" fill="#9B8954" d="M272.294,148.965c-2.798,0.128-3.289,0.577-3.289,3.759v21.7
		c0,3.182,0.512,3.631,3.289,3.759v0.876c-1.581-0.086-4.188-0.129-6.621-0.129c-2.798,0-5.425,0.043-6.9,0.129v-0.876
		c2.778-0.128,3.27-0.577,3.27-3.759v-21.7c0-3.182-0.513-3.631-3.27-3.759v-0.875c1.476,0.085,4.103,0.127,6.9,0.127
		c2.434,0,5.04-0.042,6.621-0.127V148.965z"/>
	<path clip-path="url(#SVGID_24_)" fill="#9B8954" d="M298.798,150.311c0.32,0.256,0.62,0.384,0.854,0.384
		c0.62,0,0.961-0.811,1.132-2.605h1.004c-0.128,2.242-0.171,5.254-0.171,10.594h-1.024c-0.471-4.016-1.024-6.13-3.289-7.924
		c-1.453-1.41-3.46-2.157-5.532-2.157c-6.279,0-8.714,7.325-8.714,15.057c0,7.838,2.627,14.95,8.886,14.95
		c1.921,0,4.035-0.704,5.445-2.114c2.264-1.751,2.798-4.186,3.204-8.458h1.024c0,5.553,0.043,8.693,0.171,11.021h-1.004
		c-0.171-1.794-0.448-2.584-1.068-2.584c-0.256,0-0.555,0.128-0.918,0.363c-2.136,1.516-4.313,2.84-8.073,2.84
		c-9.269,0-15.441-5.83-15.441-15.847c0-9.782,6.386-16.361,15.484-16.361C294.611,147.469,296.876,148.836,298.798,150.311"/>
	<path clip-path="url(#SVGID_24_)" fill="#9B8954" d="M215.258,168.667c2.392,0.687,3.384-0.745,3.784-0.695
		c0.4,0.051-0.914,1.77-0.51,2.292c0.358-0.775,2.161,0.009,3.568-0.445c1.133-0.366,1.951-1.421,1.615-2.703
		c-0.427-1.622-2.652-2.225-3.209-1.126c-0.641,0.858,0.381,1.641,1.127,1.441c-0.121,0.963-2.116,0.492-2.289-1.202
		c-0.173-1.694,2.821-2.85,4.729-1.039c-1.397-1.803-4.504-2.463-7.157-0.045c-2.752,2.508-4.556,1.769-4.556,1.769
		S212.865,167.98,215.258,168.667"/>
	<path clip-path="url(#SVGID_24_)" fill="#9B8954" d="M226.946,168.252c1.24-0.27,2.661-1.548,3.045-1.846
		c-1.022,0.535-2.009-0.119-3.022-0.557c-1.014-0.439-2.864,0.333-2.626,1.495C224.531,168.257,225.706,168.521,226.946,168.252"/>
	<path clip-path="url(#SVGID_24_)" fill="#9B8954" d="M15.152,407.79c7.317,0.556,9.839,3.803,9.839,6.975
		c0,4.929-4.089,7.585-10.795,7.585c-1.222,0-3.649-0.115-6.973-0.115c-2.312,0-4.7,0.038-6.018,0.115v-0.785
		c2.483-0.114,2.922-0.514,2.922-3.361v-19.412c0-2.847-0.458-3.248-2.922-3.361v-0.784c1.318,0.077,3.744,0.116,5.941,0.116
		c2.561,0,5.159-0.078,6.152-0.078c6.458,0,9.668,2.541,9.668,6.152c0,2.771-2.35,5.865-7.814,6.879V407.79z M12.038,407.638
		c3.688,0,4.586-2.981,4.586-6.381c0-3.841-1.07-5.827-3.841-5.827c-2.006,0-2.426,0.669-2.426,3.361v8.847H12.038z M10.356,418.203
		c0,2.731,0.458,3.247,2.694,3.247c3.821,0,5.445-2.465,5.445-6.857c0-3.975-1.853-6.286-6.496-6.286h-1.643V418.203z"/>
	<path clip-path="url(#SVGID_24_)" fill="#9B8954" d="M48.188,419.063c0.86,1.853,1.7,2.465,2.465,2.502v0.783
		c-1.223-0.075-3.267-0.113-5.14-0.113c-2.502,0-4.852,0.038-6.171,0.113v-0.783c1.643-0.076,2.541-0.439,2.541-1.49
		c0-0.459-0.172-1.05-0.516-1.796l-1.948-4.452h-8.216l-0.458,1.052c-0.765,1.738-1.108,3.058-1.108,4.03
		c0,1.911,1.298,2.541,3.4,2.656v0.783c-1.49-0.075-2.847-0.113-4.489-0.113c-0.975,0-2.446,0.038-3.172,0.113v-0.783
		c1.318-0.268,2.273-1.547,3.439-4.203l8.272-18.876c0.306,0.019,0.593,0.039,0.899,0.039c0.305,0,0.611-0.021,0.897-0.039
		L48.188,419.063z M35.33,404.466l-3.783,8.578h7.528L35.33,404.466z"/>
	<path clip-path="url(#SVGID_24_)" fill="#9B8954" d="M76.198,399.345c-2.484,0.346-2.923,1.128-2.923,4.452v18.629
		c-0.344-0.019-0.688-0.019-1.032-0.019c-0.363,0-0.707,0-1.051,0.019l-15.647-19.45v14.14c0,3.324,0.65,4.105,4.031,4.45v0.783
		c-1.146-0.075-2.846-0.113-4.47-0.113c-1.223,0-2.579,0.038-3.401,0.113v-0.783c2.502-0.345,2.942-1.126,2.942-4.45v-14.407
		c0-2.866-0.458-3.247-2.942-3.363v-0.781c0.822,0.075,2.178,0.113,3.401,0.113c1.777,0,3.458-0.038,4.776-0.113l12.495,15.493
		v-10.26c0-3.324-0.649-4.106-4.032-4.452v-0.781c1.147,0.075,2.847,0.113,4.452,0.113c1.242,0,2.599-0.038,3.401-0.113V399.345z"/>
	<path clip-path="url(#SVGID_24_)" fill="#9B8954" d="M100.846,422.349c-0.077-0.707-0.268-1.452-0.822-1.452
		c-0.496,0-1.28,0.363-1.948,0.688c-0.994,0.459-3.287,1.319-6.019,1.319c-8.54,0-13.526-4.433-13.526-11.979
		c0-7.948,5.617-12.916,13.545-12.916c3.478,0,5.14,1.223,6.879,2.542c0.306,0.248,0.573,0.382,0.802,0.382
		c0.516,0,0.803-0.707,0.955-2.369h0.917c-0.133,1.682-0.172,3.878-0.172,7.813h-0.897c-0.344-1.719-0.88-3.362-1.949-4.604
		c-1.357-1.49-2.905-2.732-5.445-2.732c-5.159,0-8.368,4.491-8.368,11.445c0,8.138,2.713,11.635,7.776,11.635
		c0.936,0,1.681-0.21,2.254-0.556c0.573-0.344,0.803-0.878,0.803-1.681v-3.63c0-3.172-0.612-3.649-3.707-3.763v-0.784
		c1.681,0.077,4.413,0.115,6.458,0.115c2.082,0,3.878-0.038,5.005-0.115v0.784c-1.509,0.113-1.758,0.458-1.758,3.361v6.496H100.846z
		"/>
	<path clip-path="url(#SVGID_24_)" fill="#9B8954" d="M129.603,419.177c0.821,1.108,1.452,1.834,2.656,2.389v0.783
		c-1.816-0.075-4.127-0.113-5.981-0.113c-1.146,0-2.808,0-5.349,0.113v-0.783c1.662-0.058,2.274-0.268,2.274-0.745
		c0-0.247-0.172-0.593-0.44-1.013l-5.12-7.355c-0.764-1.088-1.509-1.892-3.076-1.967v7.718c0,2.847,0.439,3.247,2.942,3.362v0.783
		c-1.357-0.075-3.725-0.113-5.808-0.113c-2.503,0-4.719,0.038-6.056,0.113v-0.783c2.502-0.115,2.942-0.516,2.942-3.362v-15.495
		c0-2.866-0.478-3.247-2.942-3.363v-0.781c1.337,0.075,3.553,0.113,6.056,0.113c2.083,0,4.451-0.038,5.808-0.113v0.781
		c-2.503,0.116-2.942,0.497-2.942,3.363v6.993c2.235-0.211,3.935-1.012,6.094-3.077l2.389-2.426c1.07-1.013,1.509-1.948,1.509-2.732
		c0-1.261-1.165-2.101-2.904-2.158v-0.744c1.872,0.075,3.706,0.113,6.018,0.113c1.433,0,2.56-0.038,3.477-0.113v0.744
		c-1.795,0.42-3.381,1.337-5.311,3.21l-4.814,4.758L129.603,419.177z"/>
	<path clip-path="url(#SVGID_24_)" fill="#9B8954" d="M158.913,410.216c0,7.587-5.484,12.687-13.221,12.687
		c-7.91,0-13.202-4.431-13.202-12.209c0-7.604,5.483-12.686,13.24-12.686C153.62,398.008,158.913,402.44,158.913,410.216
		 M138.756,410.541c0,7.146,3.172,11.654,7.088,11.654c4.146,0,6.802-4.89,6.802-11.826c0-7.145-3.152-11.653-7.088-11.653
		C141.412,398.716,138.756,403.606,138.756,410.541"/>
	<path clip-path="url(#SVGID_24_)" fill="#9B8954" d="M185.509,419.177c0.822,1.108,1.453,1.834,2.656,2.389v0.783
		c-1.815-0.075-4.127-0.113-5.979-0.113c-1.146,0-2.808,0-5.349,0.113v-0.783c1.662-0.058,2.273-0.268,2.273-0.745
		c0-0.247-0.172-0.593-0.439-1.013l-5.121-7.355c-0.764-1.088-1.509-1.892-3.076-1.967v7.718c0,2.847,0.44,3.247,2.942,3.362v0.783
		c-1.356-0.075-3.725-0.113-5.808-0.113c-2.502,0-4.719,0.038-6.056,0.113v-0.783c2.503-0.115,2.942-0.516,2.942-3.362v-15.495
		c0-2.866-0.477-3.247-2.942-3.363v-0.781c1.337,0.075,3.554,0.113,6.056,0.113c2.083,0,4.452-0.038,5.808-0.113v0.781
		c-2.502,0.116-2.942,0.497-2.942,3.363v6.993c2.236-0.211,3.936-1.012,6.095-3.077l2.388-2.426c1.07-1.013,1.51-1.948,1.51-2.732
		c0-1.261-1.166-2.101-2.905-2.158v-0.744c1.873,0.075,3.707,0.113,6.019,0.113c1.432,0,2.56-0.038,3.477-0.113v0.744
		c-1.796,0.42-3.382,1.337-5.312,3.21l-4.814,4.758L185.509,419.177z"/>
	<path clip-path="url(#SVGID_24_)" fill="#9B8954" d="M196.804,404.275c0.077-0.727,0.115-1.814,0.115-2.979
		c0-1.3-0.077-3.995-0.268-6.65c3.535,0.115,8.598,0.115,12.094,0.115c3.497,0,8.521,0,12.056-0.115
		c-0.211,2.655-0.287,5.351-0.287,6.65c0,1.165,0.038,2.253,0.115,2.979h-0.899c-1.318-6.592-3.381-8.731-7.03-8.731h-0.86v22.335
		c0,3.189,0.707,3.648,4.184,3.686v0.784c-1.662-0.057-4.566-0.114-7.451-0.114c-2.885,0-5.598,0.058-7.145,0.114v-0.784
		c3.477-0.037,4.184-0.496,4.184-3.686v-22.335h-0.86c-3.687,0-5.713,2.121-7.05,8.731H196.804z"/>
	<path clip-path="url(#SVGID_24_)" fill="#9B8954" d="M251.027,399.345c-2.483,0.116-2.923,0.497-2.923,3.363v15.495
		c0,2.847,0.459,3.247,2.923,3.362v0.783c-1.223-0.075-3.4-0.113-5.712-0.113c-2.273,0-4.7,0.038-6.133,0.113v-0.783
		c2.483-0.115,2.923-0.516,2.923-3.362v-7.585h-10.05v7.585c0,2.847,0.459,3.247,2.942,3.362v0.783
		c-1.452-0.075-3.878-0.113-6.151-0.113c-2.313,0-4.471,0.038-5.712,0.113v-0.783c2.502-0.115,2.942-0.516,2.942-3.362v-15.495
		c0-2.866-0.478-3.247-2.942-3.363v-0.781c1.241,0.075,3.4,0.113,5.712,0.113c2.273,0,4.699-0.038,6.151-0.113v0.781
		c-2.503,0.116-2.942,0.497-2.942,3.363v7.126h10.05v-7.126c0-2.866-0.458-3.247-2.923-3.363v-0.781
		c1.433,0.075,3.859,0.113,6.133,0.113c2.312,0,4.489-0.038,5.712-0.113V399.345z"/>
	<path clip-path="url(#SVGID_24_)" fill="#9B8954" d="M274.74,419.063c0.859,1.853,1.7,2.465,2.465,2.502v0.783
		c-1.223-0.075-3.268-0.113-5.14-0.113c-2.503,0-4.853,0.038-6.171,0.113v-0.783c1.643-0.076,2.541-0.439,2.541-1.49
		c0-0.459-0.172-1.05-0.516-1.796l-1.949-4.452h-8.216l-0.458,1.052c-0.765,1.738-1.107,3.058-1.107,4.03
		c0,1.911,1.299,2.541,3.4,2.656v0.783c-1.49-0.075-2.847-0.113-4.49-0.113c-0.975,0-2.445,0.038-3.171,0.113v-0.783
		c1.317-0.268,2.273-1.547,3.438-4.203l8.272-18.876c0.306,0.019,0.593,0.039,0.898,0.039s0.611-0.021,0.897-0.039L274.74,419.063z
		 M261.883,404.466l-3.783,8.578h7.527L261.883,404.466z"/>
	<path clip-path="url(#SVGID_24_)" fill="#9B8954" d="M290.103,399.345c-2.503,0.116-2.942,0.497-2.942,3.363v15.495
		c0,2.847,0.439,3.247,2.942,3.362v0.783c-1.356-0.075-3.726-0.113-5.808-0.113c-2.407,0-4.776,0.038-6.057,0.113v-0.783
		c2.503-0.115,2.942-0.516,2.942-3.362v-15.495c0-2.866-0.478-3.247-2.942-3.363v-0.781c1.28,0.075,3.649,0.113,6.057,0.113
		c2.082,0,4.451-0.038,5.808-0.113V399.345z"/>
	<path clip-path="url(#SVGID_24_)" fill="#9B8954" d="M304.644,399.345c-2.503,0.116-2.942,0.497-2.942,3.363v15.953
		c0,2.446,0.573,2.789,2.465,2.789h1.528c3.21,0,5.865-2.043,6.725-7.871h0.898c-0.076,0.841-0.114,1.968-0.114,3.21
		c0,1.089,0.076,3.343,0.267,5.56c-2.541-0.113-6.055-0.113-8.559-0.113c-2.503,0-8.063,0-12.132,0.113v-0.783
		c2.503-0.115,2.942-0.516,2.942-3.362v-15.495c0-2.866-0.478-3.247-2.942-3.363v-0.781c1.337,0.075,3.688,0.113,6.189,0.113
		c2.083,0,4.318-0.038,5.675-0.113V399.345z"/>
	<path clip-path="url(#SVGID_24_)" fill="#9B8954" d="M336.838,419.063c0.86,1.853,1.7,2.465,2.465,2.502v0.783
		c-1.223-0.075-3.267-0.113-5.14-0.113c-2.502,0-4.853,0.038-6.171,0.113v-0.783c1.644-0.076,2.541-0.439,2.541-1.49
		c0-0.459-0.172-1.05-0.516-1.796l-1.948-4.452h-8.216l-0.458,1.052c-0.765,1.738-1.108,3.058-1.108,4.03
		c0,1.911,1.299,2.541,3.4,2.656v0.783c-1.49-0.075-2.847-0.113-4.489-0.113c-0.975,0-2.445,0.038-3.172,0.113v-0.783
		c1.318-0.268,2.273-1.547,3.439-4.203l8.272-18.876c0.306,0.019,0.592,0.039,0.897,0.039s0.611-0.021,0.898-0.039L336.838,419.063z
		 M323.98,404.466l-3.783,8.578h7.528L323.98,404.466z"/>
	<path clip-path="url(#SVGID_24_)" fill="#9B8954" d="M364.849,399.345c-2.483,0.346-2.923,1.128-2.923,4.452v18.629
		c-0.346-0.019-0.688-0.019-1.032-0.019c-0.363,0-0.707,0-1.051,0.019l-15.647-19.45v14.14c0,3.324,0.649,4.105,4.031,4.45v0.783
		c-1.147-0.075-2.847-0.113-4.471-0.113c-1.223,0-2.579,0.038-3.4,0.113v-0.783c2.503-0.345,2.941-1.126,2.941-4.45v-14.407
		c0-2.866-0.458-3.247-2.941-3.363v-0.781c0.821,0.075,2.178,0.113,3.4,0.113c1.777,0,3.458-0.038,4.776-0.113l12.495,15.493v-10.26
		c0-3.324-0.649-4.106-4.032-4.452v-0.781c1.147,0.075,2.848,0.113,4.452,0.113c1.242,0,2.599-0.038,3.401-0.113V399.345z"/>
	<path clip-path="url(#SVGID_24_)" fill="#9B8954" d="M367.145,398.563c0.974,0.057,2.579,0.134,4.164,0.134
		c0.363,0,0.727-0.02,1.069-0.02c2.026-0.038,4.93-0.114,6.63-0.114c9.19,0,13.642,4.07,13.642,11.577
		c0,7.356-5.101,12.209-14.004,12.209c-1.318,0-4.279-0.114-6.171-0.114c-2.045,0-4.146,0.038-5.33,0.114v-0.784
		c2.502-0.114,2.941-0.514,2.941-3.361v-15.494c0-2.904-0.478-3.247-2.941-3.364V398.563z M376.066,418.279
		c0,2.731,0.42,3.362,2.464,3.362c6.152,0,7.872-3.993,7.872-11.348c0-7.395-2.006-11.024-7.909-11.024
		c-2.007,0-2.427,0.65-2.427,3.363V418.279z"/>
	<path clip-path="url(#SVGID_24_)" fill="#9B8954" d="M231.637,186.669c1.33,0.995,1.994,2.386,1.994,4.173
		c0,1.221-0.349,2.358-1.046,3.411c-0.697,1.054-1.536,1.992-2.517,2.812c-0.981,0.821-2.293,1.813-3.934,2.975
		c-2.18,1.511-3.67,2.689-4.469,3.53h9.677c0.813,0,1.417-0.061,1.81-0.185c0.392-0.123,0.668-0.319,0.827-0.588
		c0.16-0.269,0.276-0.679,0.35-1.232h0.915c0,3.517,0.058,6.03,0.175,7.541c-0.669-0.145-2.886-0.217-6.648-0.217h-12.989v-0.872
		c0.377-0.378,1.118-1.075,2.223-2.092c1.714-1.555,3.153-2.957,4.315-4.207c1.163-1.249,2.172-2.688,3.029-4.315
		c0.858-1.627,1.287-3.327,1.287-5.1c0-3.036-1.395-4.555-4.185-4.555c-1.235,0-2.336,0.294-3.302,0.882
		c-0.966,0.589-1.856,1.457-2.67,2.605l-0.74-0.48c2.208-3.719,5.68-5.579,10.417-5.579
		C228.48,185.176,230.308,185.674,231.637,186.669"/>
	<path clip-path="url(#SVGID_24_)" fill="#9B8954" d="M258.184,186.647c1.837,0.981,3.271,2.361,4.304,4.141
		c1.032,1.78,1.548,3.84,1.548,6.179c0,2.368-0.53,4.504-1.591,6.407c-1.062,1.904-2.547,3.404-4.458,4.501
		c-1.91,1.096-4.101,1.646-6.57,1.646c-2.325,0-4.41-0.491-6.255-1.471c-1.846-0.981-3.288-2.366-4.325-4.153
		c-1.04-1.787-1.56-3.857-1.56-6.211s0.522-4.479,1.569-6.375c1.046-1.896,2.527-3.393,4.445-4.49
		c1.92-1.097,4.12-1.645,6.604-1.645C254.249,185.176,256.345,185.666,258.184,186.647 M248.647,187.366
		c-0.828,0.923-1.475,2.256-1.939,4c-0.465,1.743-0.697,3.8-0.697,6.167c0,2.572,0.258,4.693,0.773,6.364
		c0.516,1.672,1.21,2.892,2.081,3.662c0.873,0.77,1.854,1.155,2.943,1.155c1.075,0,2.025-0.465,2.854-1.395
		c0.828-0.93,1.475-2.27,1.939-4.021s0.698-3.817,0.698-6.2c0-2.558-0.258-4.665-0.774-6.321c-0.516-1.656-1.209-2.869-2.081-3.64
		c-0.872-0.77-1.853-1.155-2.942-1.155C250.428,185.982,249.476,186.444,248.647,187.366"/>
	<path clip-path="url(#SVGID_24_)" fill="#9B8954" d="M308.839,186.647c1.838,0.981,3.272,2.361,4.304,4.141
		c1.032,1.78,1.548,3.84,1.548,6.179c0,2.368-0.53,4.504-1.591,6.407c-1.062,1.904-2.547,3.404-4.457,4.501
		c-1.911,1.096-4.102,1.646-6.571,1.646c-2.325,0-4.41-0.491-6.255-1.471c-1.846-0.981-3.288-2.366-4.326-4.153
		c-1.039-1.787-1.559-3.857-1.559-6.211s0.523-4.479,1.569-6.375s2.528-3.393,4.446-4.49c1.918-1.097,4.119-1.645,6.604-1.645
		C304.904,185.176,307.001,185.666,308.839,186.647 M299.304,187.366c-0.829,0.923-1.476,2.256-1.94,4
		c-0.465,1.743-0.697,3.8-0.697,6.167c0,2.572,0.258,4.693,0.774,6.364c0.515,1.672,1.209,2.892,2.081,3.662
		s1.853,1.155,2.942,1.155c1.075,0,2.026-0.465,2.854-1.395c0.828-0.93,1.475-2.27,1.939-4.021c0.466-1.751,0.698-3.817,0.698-6.2
		c0-2.558-0.259-4.665-0.773-6.321c-0.517-1.656-1.21-2.869-2.082-3.64c-0.872-0.77-1.853-1.155-2.943-1.155
		C301.083,185.982,300.132,186.444,299.304,187.366"/>
	<path clip-path="url(#SVGID_24_)" fill="#9B8954" d="M283.792,186.669c1.329,0.995,1.994,2.386,1.994,4.173
		c0,1.221-0.349,2.358-1.046,3.411c-0.697,1.054-1.537,1.992-2.518,2.812c-0.98,0.821-2.292,1.813-3.934,2.975
		c-2.18,1.511-3.67,2.689-4.468,3.53h9.677c0.813,0,1.416-0.061,1.809-0.185c0.393-0.123,0.668-0.319,0.828-0.588
		c0.159-0.269,0.276-0.679,0.349-1.232h0.915c0,3.517,0.059,6.03,0.175,7.541c-0.669-0.145-2.886-0.217-6.647-0.217h-12.989v-0.872
		c0.376-0.378,1.118-1.075,2.223-2.092c1.714-1.555,3.153-2.957,4.315-4.207c1.162-1.249,2.171-2.688,3.029-4.315
		c0.857-1.627,1.286-3.327,1.286-5.1c0-3.036-1.395-4.555-4.185-4.555c-1.235,0-2.336,0.294-3.302,0.882
		c-0.967,0.589-1.856,1.457-2.67,2.605l-0.741-0.48c2.208-3.719,5.682-5.579,10.418-5.579
		C280.635,185.176,282.462,185.674,283.792,186.669"/>
</g>
</svg>
